<?xml version="1.0" encoding="utf-8"?>
<!-- Generator: Adobe Illustrator 16.0.0, SVG Export Plug-In . SVG Version: 6.00 Build 0)  -->
<!DOCTYPE svg PUBLIC "-//W3C//DTD SVG 1.1//EN" "http://www.w3.org/Graphics/SVG/1.1/DTD/svg11.dtd">
<svg version="1.1" id="Calque_1" xmlns="http://www.w3.org/2000/svg" xmlns:xlink="http://www.w3.org/1999/xlink" x="0px" y="0px"
	 width="400px" height="400px" viewBox="0 0 400 400" enable-background="new 0 0 400 400" xml:space="preserve">
<path fill="#FFFFFF" d="M399.8,196.983C343.624,70.173,223,57.457,201,56.233v-0.129c0,0-0.161,0.012-1,0.053
	c-0.841-0.041-1-0.053-1-0.053v0.129c-20,1.224-142.627,13.94-198.799,140.75C42.221,330.861,179,342.759,199,343.796v0.099
	c0,0,0.162-0.005,1-0.038c0.839,0.033,1,0.038,1,0.038v-0.099C223,342.759,357.782,330.861,399.8,196.983z"/>
<path d="M332.523,200.002c0,72.609-58.871,131.471-131.479,131.471c-72.614,0-131.475-58.861-131.475-131.471
	c0-72.615,58.861-131.477,131.475-131.477C273.652,68.525,332.523,127.387,332.523,200.002z"/>
</svg>
