<?xml version="1.0" encoding="utf-8"?>
<!-- Generator: Adobe Illustrator 16.0.0, SVG Export Plug-In . SVG Version: 6.00 Build 0)  -->
<!DOCTYPE svg PUBLIC "-//W3C//DTD SVG 1.1//EN" "http://www.w3.org/Graphics/SVG/1.1/DTD/svg11.dtd">
<svg version="1.1" id="Calque_1" xmlns="http://www.w3.org/2000/svg" xmlns:xlink="http://www.w3.org/1999/xlink" x="0px" y="0px"
	 width="400px" height="400px" viewBox="0 0 400 400" enable-background="new 0 0 400 400" xml:space="preserve">
<path fill="#FFFFFF" d="M400.059,196.119C344.093,32.986,221,16.625,202,15.051v-0.167c0,0-1.165,0.015-2,0.068
	c-0.834-0.053-2-0.068-2-0.068v0.167C179,16.625,55.906,32.986-0.058,196.119C41.805,368.347,179,383.653,198,384.988v0.125
	c0,0,1.166-0.008,2-0.049c0.835,0.041,2,0.049,2,0.049v-0.125C222,383.653,358.197,368.347,400.059,196.119z"/>
<circle cx="199.754" cy="210.762" r="75.482"/>
</svg>
