<?xml version="1.0" encoding="utf-8"?>
<!-- Generator: Adobe Illustrator 16.0.0, SVG Export Plug-In . SVG Version: 6.00 Build 0)  -->
<!DOCTYPE svg PUBLIC "-//W3C//DTD SVG 1.1//EN" "http://www.w3.org/Graphics/SVG/1.1/DTD/svg11.dtd">
<svg version="1.1" id="Calque_1" xmlns="http://www.w3.org/2000/svg" xmlns:xlink="http://www.w3.org/1999/xlink" x="0px" y="0px"
	 width="400px" height="400px" viewBox="0 0 400 400" enable-background="new 0 0 400 400" xml:space="preserve">
<path fill="#FFFFFF" d="M399.692,197.596C343.831,96.562,222,86.43,202,85.455v-0.103c0,0-1.663,0.009-2.5,0.042
	c-0.836-0.033-2.5-0.042-2.5-0.042v0.103C178,86.43,55.168,96.562-0.692,197.596C41.093,304.263,178,313.742,197,314.569v0.077
	c0,0,1.669-0.005,2.5-0.03c0.832,0.025,2.5,0.03,2.5,0.03v-0.077C222,313.742,357.909,304.263,399.692,197.596z"/>
<path d="M296.913,206.668c0,53.162-43.35,96.258-96.818,96.258s-96.812-43.096-96.812-96.258c0-53.168,43.343-96.269,96.812-96.269
	S296.913,153.5,296.913,206.668z"/>
</svg>
